<svg width="227" height="85" viewBox="0 0 227 85" fill="none" xmlns="http://www.w3.org/2000/svg">
<path d="M83.9 22.6C85.3 20.8 86.5 19.3 87.9 18C89.3 16.7 88 17.4 88.3 17.1C88.6 16.8 88.9 17.1 89.3 17.1C89.9 16.9 90.8 16.1 90.9 16.1C92.5 15.7 94.9 15.3 96.4 16.1C97.9 16.9 97.9 17 98.6 17.5C99.9 18.4 101.2 19.2 101.8 20.8C102.5 22.7 102.3 22.5 103.4 24.1C105.3 26.9 105.1 28.2 106 31.3C106.2 32 107 32.1 106.2 33.1C110.3 33.7 108.7 31.8 109.5 30.5C110.3 29.2 110.2 30.2 110.4 30C110.7 29.6 110.4 29.1 110.4 28.7C110.5 28.1 111.7 26.7 112.1 25.9C112.5 25.1 112.1 25.1 112.4 24.8C112.7 24.3 113.3 24.4 113.4 24.3C113.5 24.2 113.4 23.4 113.6 23C113.8 22.6 115 20.8 115.2 20.4C117.8 16.5 123.8 14.7 127.6 18C129.8 19.9 130.6 22.5 131.6 25C132.6 27.5 133.5 27.7 134.3 29.3C135.1 30.9 135.2 32.5 135.6 33C136 33.5 138.5 33.2 138.9 32.9C139.3 32.6 138.8 32.6 138.9 32.5C139.8 31.2 139.6 30.6 140.3 29.5C141 28.4 141.5 28.3 141.7 28C142.1 27.2 142.4 26.3 142.9 25.3C145.3 20.7 147.9 15.3 154.1 15.4C159.1 15.5 159.8 21 162.6 23.9C163.9 25.2 164.3 25.8 166.2 25.9C169.1 26 169.3 23.9 170.7 22.3C172.1 20.7 171.5 21.7 171.6 21.7C172.1 21.6 172.7 21.7 173.2 21.7C173.7 21.7 173.9 21.3 174.2 21.3C174.5 21.3 174.8 21.7 175.1 21.7C178.8 22 182.9 20.8 186.5 20.5C190.1 20.2 189.9 20.3 190.3 20.8C190.7 21.3 191.5 23.7 192.2 24.6C193.3 26 194.9 26.5 196.1 28.6C202.1 38.9 200.9 48.8 195.2 58.9C194.6 59.9 194.7 60.3 193.6 61.3C192.5 62.3 192.1 62.1 191.1 62.5C190.1 62.9 189.2 64.1 188.1 64.5C187 64.9 187.2 64.5 187 64.5C186.8 64.5 187 64.7 186.1 64.8C185.2 64.9 185.1 65.9 184.6 66.1C184.1 66.3 183 65.3 181.9 65.9C180.8 66.5 181.5 66.5 181.3 66.6C180.8 66.7 180 66.2 179.4 66.4V67.2L178.4 67.6C178.2 67.3 178.4 67 177.8 67.1V67.7C177.3 67.7 175.9 68.8 176.3 67.7C175.4 67.9 174.6 68.4 173.7 68.3C172.8 68.2 171.6 67.7 170.5 68.2C169.4 68.7 170.2 68.8 170 68.9C169.7 68.9 168.2 68.5 167.7 68.7C167.2 68.9 167.6 69.1 167.4 69.2C167.1 69.2 166.8 69 166.5 69C166.2 69 166.1 69.4 165.8 69.4C165.5 69.4 165.5 68.6 164.7 68.9C164.4 69.1 165.7 69.2 164.9 69.5C164.1 69.8 161.5 70 160.8 69.8C160.1 69.6 160.8 69.2 160.5 69.3L159.8 70.2C158.9 69.6 158.3 70.1 157.6 70.2C152.1 70.6 146.7 71.3 141.1 71.3C140.8 72.3 139.6 70.8 139.2 72H138.9C139.1 71.5 137.9 71.3 137.6 71.3C137.3 71.3 137.6 71.6 137.3 71.7C135.7 72.2 136 71.6 135.7 71.5C135.2 71.4 132.3 71.3 131.5 71.2C130.7 71.1 131.4 71.9 130.7 71.7V71C130.3 70.9 130.1 71.4 129.9 71.4C129.3 71.4 128.3 70.9 127.2 71.3C126.1 71.7 127 71.8 126.9 71.8C126.7 71.8 126.1 71.3 125.7 71.2C123.2 70.6 120.7 71.6 118.5 71.2C116.3 70.8 118.1 70.7 117.5 70.6C115.4 70.2 112.6 71.2 110.3 70.6C108 70 109.4 69.9 109.1 69.9C108.8 69.9 108.5 70.4 108.2 70.3C106.9 70.1 105.6 70 104.2 69.9C102.8 69.8 102.9 69.3 102.1 69.4C101.3 69.5 101.8 69.9 101.7 69.9C100.3 69.9 98.8 69.2 97.4 69C95.4 68.7 92.8 69.2 90.7 69C88.6 68.8 90.6 68.5 90.1 68.4C89.3 68.2 88.1 68.5 87.2 68.3C84.4 67.4 83.6 67.8 81.1 67.4C80.6 67.4 80.1 66.7 79.3 66.9C79.9 68.2 78.4 66.8 78.2 66.7C77.8 66.6 75.5 66.3 74.7 66.2C72.6 65.9 70.1 66 68.2 65.7C66.3 65.4 68 65.2 67.7 65C66.7 64.4 63.7 64.7 62.5 64.7V64C60.6 64.7 58.7 63.2 56.9 63.8L57.4 63.1C56.5 63.1 55.6 62.7 54.7 62.6C53.8 62.5 52.1 62.7 51.3 62.2C50.5 61.7 51.1 61.7 51 61.7C50.8 61.6 47.8 61.2 47.1 61.1C43.9 60.4 40 59.5 37 58.3C34 57.1 34.2 57.1 34.2 56.1C34.2 55.1 34.8 56.1 34.7 55.7C34 56.1 32.3 55.6 31.7 55.1C31.1 54.6 29.8 52.5 30 51.9L29.3 51.6C29 49.9 27.9 48.6 27.5 46.9C26.9 44.6 26.2 39.4 26.7 37.3C27.7 32.1 30.2 26.1 34.6 22.8C39 19.5 37.8 20.9 38 20.9C38.9 20.6 40.6 21.4 41.2 22.1V20C42.3 19.1 43.4 18 45.1 17.9C46.8 17.8 49.6 18.7 51.4 19.1C54.6 19.8 61.9 19.7 64.3 21.3C66.7 22.9 65.1 22.7 66.2 22.4C64.9 20.3 63 16.8 63.8 14.3C64.4 12.5 64.9 13.2 65.7 12.8C66.5 12.4 66 11.8 66.8 11.7C69 11.5 69.2 14.8 69.6 16.1C70.5 18.6 72.4 22.8 75.2 23.3C78 23.8 76.6 23.3 77.2 23.3C78.4 23.5 80.8 24.5 81.9 24.4C83 24.3 83.2 23.3 83.7 22.6H83.9ZM126.6 32.6C126.8 32.3 126.8 32 126.8 31.6C126.5 29.7 124.4 25.4 123.3 23.6C122.2 21.8 122.7 22.4 122.3 22.5L117.2 31.5L115.4 33.5C116.1 33.4 116.7 33.7 117.3 33.6C119.1 33.6 121.1 33.2 123 33.2C124.9 33.2 128.5 33.9 127.6 32.7L126.7 32.5L126.6 32.6ZM154.6 23.3C150.1 23 149.4 28.9 147.5 31.9L147.7 32.6C148.4 31.8 149.1 32.3 149.8 32.3C150.5 32.3 151.1 31.9 151.7 31.9C152.3 31.9 153.7 32.5 154.7 32.4V31.9C155.2 32.3 155.6 31.8 155.9 31.8C156.9 31.8 158.4 31.9 159.5 31.9L154.5 23.3H154.6ZM94.3 23.7C94.1 23.7 92.9 25.3 93 25.6C93.1 25.9 94.3 26.4 94.6 26.8C94.9 27.2 96.3 29.3 96.4 29.6C97 31 96.5 32.9 98.6 32.5L98.9 32.1L95 24C94.8 23.7 94.5 23.6 94.2 23.7H94.3ZM77 25.3C73 24.9 69.9 25.1 66 24C62.1 22.9 65.5 23.8 65.3 23.5C65.1 23.7 65 23.8 65 24C64.8 24.8 64.8 29.2 65.4 29.7C67 30.2 68.8 30.7 70.4 31C77.3 32 84.2 31.8 90.9 32.2C97.6 32.6 94.2 32.9 95.9 32.6C94.7 29.3 93.8 26.9 89.8 26.8L90 26.3H89.1L89.3 26.8L80.7 26.1L80.9 27L74.7 27.2C72.3 27.6 69.8 27.2 67.4 27L66.6 26C67.6 25.5 68.4 26 69.3 26C72.3 26 75.3 25.8 78.4 25.8C81.5 25.8 79.3 26 79.2 25.6C78.3 25.1 77.5 25.4 76.8 25.3H77ZM62.8 29.1C62.8 28.4 62.8 27.8 62.9 27.1C62.9 26.6 63 25.9 63 25.5C63 25.1 63 23.4 62.9 23.2C62.8 22.6 60.4 21.9 59.7 22.4C60.1 23 59.6 23.5 59.6 23.7C59.6 23.9 60.2 25.5 60.2 26.3C60.2 27.1 60.4 26.9 59.8 26.9C58.5 26.8 59.1 25.2 58.1 24.8C57.1 24.4 51.5 24.8 51.5 23.7C51.8 23.2 52.6 23.7 52.4 22.9C51.4 23.2 50 21.7 51.6 21.7C53.2 21.7 52.5 22.2 52.4 21.7C51.8 21.6 51.2 21.2 50.6 21.1C49.6 20.9 45.4 20.1 44.5 20.2C43.6 20.3 43.5 20.9 42.8 20.9C42.6 21.8 43.2 22.5 42.6 23.3L42.8 23.8C44 24.2 45 25 46.2 25.4C47.4 25.8 48.4 25.9 49.3 26.3C52 27.2 55.8 29 58.5 29.2C61.2 29.4 61.2 29.2 62.6 29.2L62.8 29.1ZM67.5 17C67.7 17.6 67.5 18.4 67.5 18.9C67.5 19.4 69 21.9 69.5 22.3C70 22.7 70.6 22.8 71.3 22.9L71.5 22.4L68.1 17.1H67.4L67.5 17ZM198.3 47C199.3 41.8 197.6 34.5 195 30C194.7 29.4 193.1 27.1 192.6 27C191 27 189.5 28.4 188.1 28.8C186.7 29.2 187.6 28.6 187.5 28.6C187.4 28.6 187.2 29.4 186.5 29.1V29.6C186.6 29.6 185.7 29.4 185.7 29.4L186.2 29.9L185.3 29.7C185.5 31.1 183.7 30.5 182.9 30.6C180.1 31.2 176.7 32.2 173.6 32.8C168.6 33.8 163.4 34.6 158.3 34.8C153.2 35 153.7 34.4 150.6 34.8C128.6 37.6 108.7 35.3 86.8 34.3C84.6 34.3 82.3 34.3 80.1 34.5C80.1 34.9 80.9 34.9 81.2 34.9C86.1 35.7 91 35.8 95.9 36.1C112.1 37 128 37.8 144.3 37.3C158.3 36.9 170.2 35.7 183.8 32.2C186.1 31.6 188.3 30.9 190.5 30.1H190.9V30.8H191.4C191.4 30.3 192 30 192.4 30.1C192.8 30.2 195.2 33.5 195.6 34.2C197.9 38.5 198.6 43.1 197.9 47.9C198.4 47.9 198.3 47.4 198.4 47.1L198.3 47ZM161.6 25.7C158.2 22.6 158.4 15.8 151.9 17.3C150.2 17.7 148.2 18.9 147.5 20.5C148.6 20.5 149.5 20.2 150.7 20.3C154 20.3 155.5 21.7 157.2 24.4C158.4 26.4 159.5 29.1 161.2 30.6C161.7 31 162.5 31.6 163.1 31.7C163.7 31.8 163.7 31.8 163.6 31.3C162.8 31.3 161.9 30.9 161.5 30.1C162.6 29.9 165.1 29.5 164.5 31.3C165.1 31.4 165.9 30.9 166.4 31.1C166.9 31.3 166.6 31.6 167 31.8C168.3 32.5 168.3 31.6 168.4 31.6C168.9 31.6 170.2 31.6 170.9 31.6C173.1 31.2 175.5 30.4 177.7 30C182 29.2 182.7 29 186.7 27.3C188.1 26.7 189.5 26.3 190.9 25.7L188.9 21.8C186.4 22 183.9 22.8 181.4 23.2C179.7 23.4 175.1 23.9 173.5 23.7C171.9 23.5 172.7 23.3 172.3 23.2C171.5 24.9 170.5 26.3 168.7 27.1C166.9 27.9 165.5 28 164 27.7C162.9 27.5 163.2 27 163 26.8C162.8 26.6 161.9 26.3 161.4 25.9L161.6 25.7ZM121 17.3C120.8 17.4 118.6 19.4 118.3 19.7C118 20 117.9 20 118 20.4C120.5 19.2 123.1 20.1 124.6 22.3C125.8 24 126.4 27.2 127.8 28.6C129.2 30 128.6 28.9 129 29.4C129.5 30.1 129.6 33.5 130.5 33.6L133.1 33C133.5 30.4 131.5 28.3 130.4 26.1C129.3 23.9 127.4 18.9 125.9 17.9C124.4 16.9 122.7 16.5 121.1 17.2L121 17.3ZM103.2 30.4C102.9 29.2 103 27.6 102.7 26.7C102.4 25.8 101.5 25.2 101.1 24.5C100.5 23.4 99.1 19.9 98.6 19.3C98.1 18.7 95.2 17.3 94.3 17.3C92.9 17.3 90.3 18.2 89.3 19.3C91.8 19.1 94.7 19.5 96.3 21.7C96.9 22.5 98 24.6 98.5 25.6C99.1 26.8 101.3 32.1 101.8 32.5C102.3 32.9 102.9 32.5 103.4 32.5C103.9 32.5 103.8 33 104.2 32.9C103.9 32 103.5 31.2 103.2 30.3V30.4ZM121 22C121 20.9 115.9 22.8 115.3 23.3L110.5 33.1C111.4 33.3 112.6 33.7 113.5 33.1C114.4 32.5 116.5 29.3 116.8 28.7C117.8 27.1 118.7 25.3 119.7 23.8C120.7 22.3 121 22 120.9 21.9L121 22ZM146.5 22.1L140.8 33.3C141.9 33.1 143.1 32.8 144.3 33.3C144.8 32.2 145.7 31.3 146.3 30.3C146.9 29.3 147.2 27.8 147.5 27.1C148.2 25.8 149 24 150.2 23.2L152.9 22.1C150.8 21.3 148.6 21.6 146.5 22.1ZM87.7 21.7C86.9 21.9 86.3 23.5 85.7 24.1C86 24.4 86.3 24.8 86.8 24.9C87.3 25 90.2 25.1 90.4 25.1C91.1 24.9 91.3 24.2 91.6 23.9C91.9 23.6 92 23.9 92.2 23.7C92.5 23.4 93.5 22.2 93.1 21.8C92.7 21.4 88.4 21.6 87.7 21.8V21.7ZM29.4 43.6C29.4 44.2 29.3 45.3 29.9 45.7L29.4 43.6ZM28.6 36.1C28 36.5 28.4 36.8 28.9 36.8L28.6 36.1ZM28.6 35.4L28.2 35.9H28.9V35.4H28.6ZM118.4 39.4H117.9V39.6H118.4V39.4ZM131.9 44.8H131.4V45.3L131.9 44.8ZM149.7 53.4H149.2V53.6H149.7V53.4ZM187.8 24L174.8 25.1L173.8 26.5C174.7 26.2 175.4 26.8 176 26.9C176.6 27 177.5 26.4 177.3 27.2C175.9 27.5 173.6 26.6 173.3 28.6C174 28.4 174.3 29 174.3 29C174.4 29 174.7 28.8 175 28.8C175.8 28.8 178.8 28.7 178.8 27.5C178.8 27.2 178.1 27.1 178.8 26.7L187.1 25.5L187.7 23.9L187.8 24ZM165.8 30.3H165.3V30.5H165.8V30.3ZM78.9 29.1C79.1 28.7 78.9 27.9 78.3 27.8C77.7 27.7 75.7 28 75.3 28C74.8 28 74.3 28.4 73.8 28.5V29.2C74.8 29.4 78.5 29.9 78.9 29.2V29.1ZM50.2 22.6C49 22.6 49 23.4 50.2 23.3V22.6ZM56.3 27C57.2 27 57.2 26.3 56.3 26.3V27ZM60.2 31.7L62.4 32.4C63.5 32.4 64.5 32.7 65.5 32.8C66.5 32.9 66.2 33.1 66.2 32.7C64.2 32.5 62.1 31.5 60.1 31.8L60.2 31.7ZM49.7 29.8V30C50.2 30 50.6 30.2 51.1 30V29.8H49.7ZM77.8 34.2V34.4H78.7V34.2H77.8ZM53.5 30.5V30.7H54.4V30.5H53.5ZM52.3 30C52.2 30 52.7 30.6 53 30.5C53.1 30.5 52.6 29.9 52.3 30ZM35.5 24.7V25.2L36 24.7H35.5ZM50.4 27.9V28.1H50.9V27.9H50.4ZM197.8 48.3H197.6V48.8H197.8V48.3ZM57.9 31.2V31.4H58.4V31.2H57.9ZM58.6 31.4V31.6H59.1V31.4H58.6ZM51.4 61.6V61.8H51.9V61.6H51.4ZM74.7 33.8V34H75.2V33.8H74.7ZM131.5 70.7V70.9H132V70.7H131.5ZM140.1 70.9V71.1H140.6V70.9H140.1Z" fill="#1D1D1B"/>
<path d="M38.3 22.8C38.3 23.1 38.3 23.4 38.5 23.6C39.5 24.7 42.2 26 43.6 26.6C45 27.2 46.1 27.3 46.2 27.4L46 27.9C47.1 27.9 48.2 28.2 49 29C47.6 29 45.5 28.6 44.1 28.1C42.7 27.6 42.9 26.9 41.4 26.7C39.9 26.5 41.2 27 40.1 26.3C39.1 25.6 38.5 25.9 39.1 27.1C39.6 28.1 44.7 30.1 46 30.5C54.6 33.4 65.1 35.7 74.1 36.7C77.2 37.1 80.4 37 83.5 37.4C86.6 37.8 83.4 37.8 85.1 37.7C86.8 37.6 85.1 38.2 85.5 38.2C85.9 38.2 86.4 38 86.9 37.9C88.6 37.9 90.3 37.9 91.9 38.1L91.4 38.6C92 38.6 92.6 38.2 93.1 38.4C93.6 38.6 93.2 38.9 93.4 38.9C94.2 39 96.4 37.6 97.4 38.7L97.2 39.4C97.5 39.6 101 39 101.8 38.9C103.7 38.8 105.8 38.9 107.6 38.9C109.4 38.9 110.8 38.6 111.8 38.9C112.8 39.2 112 39.5 112.3 39.6C112.6 39.7 114.2 39.6 114.4 39.6C114.6 39.6 114.4 38.9 115.1 39.1C115.8 39.3 115.3 39.9 115.8 39.8V39.1C116.6 39.1 117.5 38.9 118.3 39.3C119.5 39.9 119.5 40.4 121.4 40.4C123.3 40.4 122.4 40.2 123 40.3V39.6C123.1 39.6 123.4 40.3 123.4 40.3L126 39.8L125.8 39.3L126.6 39.1V39.8C128.2 39.8 129.9 39.4 131.5 39.4C133.1 39.4 133.1 39.8 133.8 39.7C134.5 39.6 135.1 39 135.8 39.4L135.6 40.1C136.6 40.7 137.2 40.1 137.8 40C138.9 39.9 139.7 40.1 140.4 40C141.1 39.9 141.3 39.4 141.8 39.4C142.3 39.4 143.3 39.3 144.1 39.2C144.9 39.1 147 39.4 146.8 40H147C147.2 38.8 149.1 39.6 150 39.5L149.5 39C150.6 38.5 151.6 39.2 152.7 39.2C155.1 39.2 158.6 38.5 160.9 38.1C163.2 37.7 166.3 38.1 168.7 37.7C171.1 37.3 169.6 37 170 37C170.7 36.9 172 37.3 172.8 36.5L173 37C173.7 36.4 174.6 36.5 175.1 37C176.2 35.9 178.4 36.1 179.9 35.8C181.4 35.5 182.4 34.7 183.6 34.9L183.4 34.2L183.6 34.7C184.3 34.5 184.5 34.2 185.2 34.5L184.7 34L186.1 34.5C186.2 33.4 187 33.8 187.6 33.6C188.2 33.4 187.8 32.4 188.7 34L188.2 34.3H188.9C189.1 33.7 189 33.6 188.7 33.1C189.7 33.4 190.9 32.9 191.4 31.9C193.6 34.8 195.9 38.1 196.2 41.8C197.8 62.3 182.2 65.1 165.9 67.4C137.1 71.5 107.3 69.2 78.6 65.3C65.2 63.5 51.8 61.2 38.7 57.5C38.1 57.3 35 56.5 34.8 56.2C34.6 55.9 34.8 55.7 34.8 55.4C34.2 54.2 33.3 53.3 32.7 51.9C29.6 44.7 30 35.5 35.6 29.6C36.1 29.1 38.4 27.8 38.3 27.4C36.4 25.9 34.6 28.5 33.5 29.9C32.4 31.3 31.6 32.3 31.2 33.2C29.7 36 29.5 39.6 29.3 42.8C29.1 46 29.5 43.4 29 43.7C28.6 41 28.6 38.3 29 35.6C29.4 32.9 29.7 35.6 29.4 35H28.5C29 34.6 29.2 34.1 29.9 34.5C29.4 33.1 30.4 32.6 30.7 31.7C31 30.9 31.1 30.1 31.4 29.4C31.6 28.8 32.5 28.7 32 27.5H32.9C33.5 26 35.3 25.9 36.6 24.9L35.7 24.6C36.4 24 37.5 24.6 37.6 23.2L38.1 23L38.3 22.8Z" fill="white"/>
<path d="M172.9 59.2C172.7 58.3 172.6 56.7 172.3 55.9C172 55.1 171.8 55.4 171.7 55.3C171 53.5 169.4 48.1 169.6 46.3C169.8 44.5 170.1 45.1 170 44.5L171 44.7C171.6 46.1 171.8 47.5 171.9 49L173.4 52.9L174 45.1L175.2 44.7V42.8C175.1 42.8 176.4 43.6 176.4 43.6C176.9 45.3 176.2 47 176.1 48.7C175.8 52.1 175.8 55.5 175.3 58.8C175 59.2 173.2 59.5 173 59.1L172.9 59.2Z" fill="#1D1D1B"/>
<path d="M168.6 59.6C168.2 60 167.5 59.8 167.2 59.4C166.4 58.6 166.9 55.1 166.7 53.7C166.5 52.3 166.4 52.3 166.2 51.2C166 49.3 165.5 47.3 165.5 45.5C165.5 43.7 165.5 44.8 165.8 44.7C166.6 44.7 167.6 44.5 167.7 45.5C168 47 168 49 168.2 50.6C168.5 53 169 55.7 168.9 58.1C168.8 60.5 168.8 59.3 168.6 59.6Z" fill="#1D1D1B"/>
<path d="M164.2 44.1C164.6 46.1 161.9 45 162.1 46.8C162.1 47.3 162.5 47.1 162.5 47.2C162.7 48.3 162.7 48.5 163 49.4C163.3 50.3 163 51 163.2 51.7H162.5C162.4 52.1 163 52.3 163.1 52.7C163.2 53.1 162.8 53.3 162.8 53.5C162.8 53.7 163.2 54.3 163.2 54.7C163.2 55.1 162.5 56.1 162.5 56.8C162.5 57.5 162.8 57.5 162.9 57.7C163 57.9 162.3 59.6 162.5 60.1C160.5 60.2 160.2 56.2 160.2 54.6C160.2 54 160.5 53.5 160.4 53.2C160.3 52.9 160 53.2 159.9 52.7C159.6 51.4 160.1 49.6 159.9 48.3C159.7 47 159 47 159.3 46.1L156.5 45.8L157 46.4C156.1 47.9 155.1 45.8 154.1 45.6C152.1 47.3 153.5 50.5 154.3 52.5C155.4 52.1 156.5 52.1 157.6 52.5C157.5 53.4 159.2 55.7 157.7 56L158.2 56.4C158.2 58.3 158 59.1 156.7 60.4C156.6 60.5 156.2 60.4 156.1 60.6C156 60.8 155.9 61.3 155.9 61.4C155.9 61.5 154.7 61.3 154.3 61.6L154.8 62.1C153.9 61.9 150.9 61.6 151.3 60.2L152.2 59.3H151.7C151.7 59.2 151.9 58.6 151.9 58.6L151.5 58.4L152.7 57.9C152.4 58.6 153.6 59.7 154.2 59.8C156 59.8 155.5 57.8 155.5 56.7C155.5 55.6 155.8 56.3 155.8 56.2C155.8 56.1 154.7 54.8 154.9 54.2L154.5 54.7L152.8 54.2V55.1C152.8 54.4 152.1 54.5 151.7 54.2C151.1 53.7 150.4 49 150.4 48.2C150.4 45.4 152.8 43.4 155.6 43.9C156.2 44 156.8 44.7 157.3 44.8C157.8 44.9 159.9 44 160.6 43.9C161.8 43.7 163 43.3 164.2 43.9V44.1Z" fill="#1D1D1B"/>
<path d="M132.4 45.2C132.4 46.1 133.2 46.5 133.3 47.4C133.4 48.3 133.6 50.8 133.6 51.4C133.5 52.2 132.7 52.5 133.6 52.5L133.4 53C134.5 53.7 133.8 55.5 133.8 56.5C133.8 58.6 134.7 63.7 131 61.4C131 59.8 131.1 58.3 130.8 56.8H131.5C131.5 56.7 131.5 56 131.5 56L131 56.2C131 55.9 130.8 55.7 130.8 55.4C130.8 54.9 130.7 53.8 131.2 53.8C130.3 52.8 131.3 52 131.2 51C131.1 50 130.7 50.7 130.7 50.5C130.7 50.1 131.1 49.8 131.1 49.4C131.1 49 130.9 47.7 131 47.3C131.1 46.9 131.5 46.4 131.7 46.1C131.9 45.8 132.5 46.1 131.9 45.4H132.4V45.2Z" fill="#1D1D1B"/>
<path d="M121 51.1C121 52.5 120.4 54.5 118.6 54.4C116.8 54.3 115.6 53.6 115.4 53.1C115.1 52 116.4 49.9 117.5 49.6C119 49.2 119.7 51.4 121 51.1Z" fill="#1D1D1B"/>
<path d="M95.3 44.2C95.3 44.2 95.6 44.2 95.7 44.4C95.9 44.7 95.8 45.1 96 45.2C96.5 45.4 96.3 44.5 96.6 44.1C97.2 43.1 98.7 43 99.1 44.2C99.5 45.4 98.8 44.9 98.7 45.5C98.6 46.1 99.1 46.8 99.2 47.4L98.7 47.6C99 48.2 99.3 48.5 99.2 49.2C99.1 49.9 98.6 49.4 98.7 49.9C99 50.3 99.2 50.2 99.6 50L100 52.6C100.7 51.2 102 44.9 103.2 44.3C104.4 43.7 103.8 44.2 104.1 44.2C104.1 44.7 104.1 45.7 103.4 45.6L103.8 45.9L103.3 47.4L103.8 47.9C102.9 48.4 103.4 48.9 103.3 49.3C102.7 51.5 101.9 53.1 101.5 55.4C101.5 55.8 101.6 56.6 101.6 56.6C101.6 56.6 101.1 56.7 100.9 57C100.5 57.5 100.3 58.4 99.9 59L99 58.8V59.5C98.4 59.7 98.6 59 98.4 59C98 59 97.5 59.9 97 59L95.8 45.7C95.7 46.6 95.2 47.6 95.1 48.5C95 49.4 94 53.2 93.9 53.8C93.8 54.4 94.4 55 93.4 55.1L94.1 55.3C94.1 55.3 93.7 56.9 93.6 57C93.2 57.8 92.4 57.3 91.8 57.5C91.2 57.7 91.6 58.6 90.7 57.5L92.7 45C93.2 43.9 93.5 42.1 95.1 43C95.2 43.2 94.8 43.7 95.1 44.1L95.3 44.2Z" fill="#1D1D1B"/>
<path d="M92.2 42.7L91.9 44.4L89.4 45L87.3 56.5L86.8 56.3C86.9 57.4 85.6 57.4 85 57.9L84.5 57.1C85.3 53 85.2 48.7 86.4 44.7L84.5 44.3L85.9 43.7C84.7 43.5 83.8 42.2 85.5 42.2C87.6 42.2 90 42.9 92.2 42.7Z" fill="#1D1D1B"/>
<path d="M62.4 38.6C62.5 38.8 62.9 38.8 63 39.1L62.8 41.3C63.1 41.7 64.7 39.5 64.5 39C66.6 38 69.6 39.4 70.6 41.4L69.3 42.5C68.1 42.4 67.3 40.6 66.3 40.9C65.3 41.2 65.1 42.5 65 42.7C64.8 43.3 64.4 47.1 64.8 47.4C65.9 48 68.5 47.5 68.5 49.1C68 48.9 66.8 49.6 66.5 49.6C66 49.6 65.1 48.8 64.3 49.1C64.5 50.1 63.5 52.4 65.4 52.4C67.3 52.4 66.4 51.4 66.4 51.4C66.9 51.1 68.8 50.5 69 51.4C69.2 52.3 66.7 54.3 66.1 54.5C65.5 54.7 63.9 54.5 63.8 54.5C63.5 54.4 63.4 53.5 62.5 53.8C63.1 52.9 62.2 53 61.9 52.6C61.6 52.2 61.6 51.2 61.7 51.1C61.7 50.9 62.1 50.6 62.1 50.2C62.2 48.7 62.1 47.2 62.3 45.6C61.6 45.5 61.9 45.8 61.8 46.1C61.4 47.2 61 48 60.6 49H58.3C58.4 50.4 58.3 51.6 57.4 52.7L55.6 52L56.3 46C57.1 45.7 56.5 45.3 56.5 44.6C56.7 42.4 57.8 40 58 37.7C58.4 37.2 61.8 37.6 62.3 38.1C62.8 38.6 62.5 38.6 62.6 38.8L62.4 38.6ZM59.3 46.2L60.7 39.8C60.7 39.1 59.6 39 59.4 39.6L58.6 46.2H59.3ZM62.8 43.1V42.2H62.6L62.4 42.8L62.9 43.1H62.8ZM62.6 43.4C61.9 43.3 62.2 43.6 62.1 43.9C62 44.2 61.5 45 62.1 45.2L62.7 43.3L62.6 43.4Z" fill="#1D1D1B"/>
<path d="M109.7 59.2C109.7 59.2 109.3 59.2 109.2 59.4C109.1 59.6 109.1 59.8 108.9 59.8C108.1 59.9 108.1 59.1 107.5 60.2C106.6 60.4 106.2 60 105.9 59.2C105.4 57.9 105.5 55.2 105.5 53.6C105.5 51.8 105.8 47.3 106.2 45.7C106.9 43.4 110 42.9 111.9 44.1C113.8 45.3 113.4 46.3 113.4 46.8C113.5 48.3 112.3 52.5 112 54.3C111.8 55.6 112 56.8 111.5 58.2C111.2 59 110.1 58.3 109.9 58.5C109.7 58.7 109.8 59.1 109.6 59.3L109.7 59.2ZM110.2 44.8C109.3 44.8 108.5 44.8 107.9 45.4C109 47.4 108.1 49.5 108.9 51.7H108.2C108.7 52.7 108 53.3 107.9 54.1C107.8 54.9 108.4 54.4 108.4 54.6C108.5 55.3 108.1 56.4 107.7 57L108.8 57.5C109.1 57 109.3 56.1 109.4 55.5C109.5 54.3 109.5 53.2 109.7 52.1C109.9 51.1 110.4 49.9 110.5 49.4C110.6 48.9 110.3 47.8 110.4 47.3C110.5 46.8 110.8 47.2 110.8 47.1C111.1 46.3 108.7 45.6 109.2 45.1C109.6 45.3 110.5 45.7 110.4 44.9L110.2 44.8Z" fill="#1D1D1B"/>
<path d="M76.2 47.6C76.2 47.6 76.5 48.2 76.4 48.6C76.3 49 75.1 50.6 75.1 50.9C75.1 52.4 76 52.1 76.1 52.2C76.2 52.5 76 52.7 76.1 52.9C76.2 53.1 76.5 52.9 76.5 53.1C76.5 53.3 76.4 55.1 76.2 55.2C75.7 55.8 74.2 55.9 73.5 56C73.4 55.8 74.5 52.8 72.7 52.5C70.9 52.2 72.4 54 71.9 54.2C71.2 54.8 70.4 55.3 69.3 55.2L72 39.9C72.4 39.4 75.2 40 75.9 40.3C76.6 40.6 77.2 41 77.7 41.8C77.5 42.6 77.9 43.3 77.8 44C77.7 44.7 77.1 47.3 77 47.4C76.9 47.5 76.5 47.6 76.5 47.7L76.2 47.6ZM75.2 42.2C74.6 42 74 41.3 73.6 42.1L72.6 49.9C74 50 73.6 48.5 73.9 47.6C74.2 46.7 74.6 46 74.8 45.2C75 44.4 74.8 43.1 75.2 42.2Z" fill="#1D1D1B"/>
<path d="M52 35.5L54.1 37.3C54.1 37.3 54 37.6 54.1 37.8C54.6 39.6 54.4 40.9 54.2 42.7C54 44.5 53.7 46.4 54 48.6C54.1 49.9 54 51.2 52.5 51.5C50.4 51.1 51.6 48.8 51.4 47.3H49.8C49.5 48 49 50.6 48.3 50.8C47.6 51 47.1 50.1 47 49.5C46.7 47.4 47.4 46.4 47.6 44.8C47.9 42.4 47.9 39.8 48.7 37.5C49.1 36.3 50.7 35.2 52 35.5ZM49.7 45.5H51.2L51.5 45.1C51.5 43.4 52.8 38.7 51.9 37.3C51 35.9 50.6 37.1 50.4 37.9C49.9 40 50.2 42.8 49.8 44.7C49.4 46.6 49.7 45.2 49.8 45.5H49.7Z" fill="#1D1D1B"/>
<path d="M82.1 41.7C82.6 42.1 82.6 40.7 83 41.2C83.4 41.7 82.6 42 82.6 42.3C82.6 42.6 83 42.8 83 43.2C83 43.6 82.8 45.9 82.1 45.7C81.9 45.9 82.7 46.1 82.7 46.2C83.1 46.8 81.8 53.1 81.6 54.2C81.4 55.3 81.6 55.4 81.6 56C81.3 57.3 79.9 56.5 78.9 56.8C78.3 56.2 79.4 51.9 79.5 50.8C79.8 48.3 79.6 44.8 80.3 42.4C80.3 42.1 80.8 41 81.1 40.9H82.1V41.6V41.7Z" fill="#1D1D1B"/>
<path d="M41.6 44.1C41.5 44.1 41.6 44.6 40.7 44.5C38.6 44.3 37.1 42.2 36.4 40.4V40.1C37.4 39.9 36.8 39.6 37 39.2C37.2 38.8 38.7 36.8 38.8 36.7C38.9 36.6 40.6 36 40.8 36C41.1 36 43.9 36.7 44.1 36.9C43.6 37.9 44.4 38.8 44.4 39.4C44.4 40 44.1 41.3 44.1 41.4C43.6 43.2 43.3 43.5 41.7 44.3L41.6 44.1ZM41.5 37.3C39.5 36.9 37.5 39.4 38 41.3L40.2 39.2L41.5 37.3ZM42.7 39.9C42.4 39.5 39.7 42.3 39.4 42.7C41.6 43.6 42.4 41.7 42.7 39.9Z" fill="#1D1D1B"/>
<path d="M131.9 44.8L131.5 45.2V44.8H131.9Z" fill="#1D1D1B"/>
<path d="M149.7 53.4H149.2V53.6H149.7V53.4Z" fill="#1D1D1B"/>
<path d="M129.2 50.3C130.2 52.9 129.8 55.8 129 58.5C128.6 59.7 127.9 60.7 127 61.6C126.3 61.5 125.7 61.8 125 61.7C120.6 61.5 123.8 53.8 123.2 51.3C123.2 51.1 122.7 51.1 122.7 51C122.7 50.6 123.2 50.1 123.2 49.4C123.2 48.7 122.8 48.2 122.8 47.8C122.8 47.4 123.4 46 123.3 45.6L124.7 44.9C125.4 44.9 128.2 46.1 128.7 46.5C129.8 47.5 128.7 49 129.1 50.2L129.2 50.3ZM126.6 47.1H125.9C125.9 47 125.4 47.2 125.4 47.2C126.2 51.2 125.4 55.3 125.4 59.3C125.4 59.5 125.1 60.2 125.6 60.2C126.5 60.2 127 55.9 127 55.1C127.2 53.5 127.2 52.7 126.9 51.2C126.6 49.7 127.7 48.2 126.5 47.5L126.7 47.1H126.6Z" fill="#1D1D1B"/>
<path d="M148.3 46.4C147.5 46.4 147.1 46.9 147.3 47.6C146.8 47.2 145.7 45 145.1 45.5C144.9 45.9 145.7 46.3 145.6 46.4C145.5 46.5 145.2 46.4 145.1 46.5C144.9 46.8 145.3 47.2 144.6 47.1V47.3C144.8 47.3 145 47.3 145.1 47.5C145.2 48 144.9 49.8 145 50.6C145.1 51.4 145.5 52.2 145.3 53L149 52.3L148.8 54.3C147.5 54.1 145.4 54.9 145.3 56.4C145.2 57.9 145.6 56.9 145.6 57.1C145.6 57.4 145.4 57.7 145.5 58C145.6 58.3 145.9 58.2 145.9 58.2C145.9 58.5 145.8 59.2 146.3 59.6C146.8 58.9 147.7 58.5 147.6 57.5L149 58C149.3 57.7 147.7 57 148.9 56.8L149.5 57.2L150 58.4C149.2 58.3 149.5 59.3 149.2 59.5C148.9 59.7 148.6 59.5 148.4 59.8C148.2 60.1 148.6 60.3 148.4 60.6C148.2 60.9 145.5 62.1 145.2 62.1C145 61.5 144.5 61.5 144.3 61.4C142.4 59.8 143.3 56.9 142.5 54.7L141.9 55.1C142.2 56.6 142.1 60.5 141.2 61.6C141.2 61.6 139.7 62.3 139.6 62.4C139.2 62.4 138.7 61.7 138.1 62.4C137.7 62.1 137.7 61.5 137.3 61.1C136.3 60.2 136.4 61.1 136 59.2C135.6 57 134.7 52.2 135 49.7C135.2 48.3 135.7 46.4 137.1 45.8C138.4 46.3 140.7 47.3 140.2 49C139.8 48.7 139.3 48.8 138.9 48.6C138.5 48.4 138 47.7 137.5 47.3C137.4 48.1 137.1 49 137.1 49.8C137.1 50.6 137.4 53.4 137.7 54.2C138 55 137.7 54.6 138.2 54.5C137.7 52.9 141.4 53 141.9 53.4C142.4 53.8 142.1 54.2 142.6 54C142.8 51.7 141.6 48.3 142.6 46.2C143.3 44.9 145.1 43.4 146.6 44C148.1 44.6 148.8 45.9 148.4 46.3L148.3 46.4ZM138.1 55C137.4 55.1 138.1 58.7 138.6 58.7C139.5 57.7 139.8 55.2 138.1 55ZM146.9 61.1V60.6C146.8 60.6 146.4 61.1 146.4 61.1H146.9Z" fill="#1D1D1B"/>
<path d="M190.5 41.8C191 42.3 191 43 191.5 43.2C190.8 43.8 191.4 45.3 191.1 45.9C190.8 46.5 188.6 48.6 188.1 48.7C186.9 48.9 185.8 48.7 184.9 47.9C184 47.1 184.6 46.8 183.3 47.1L184.2 48.1H183.7C183.7 48.2 184.2 49.3 184.2 49.3L183.7 49.5C184.6 50.9 183.7 55.7 182.4 56.6C181.1 57.5 180.4 57.2 179.7 56.7C179 56.2 179.4 56.1 179.2 55.8C178.8 55.3 177.7 53.7 177.7 53.2C177.7 52.3 177.6 51.2 177.5 50.2C177.4 49.2 178 49.2 177.2 49L177.7 48.8V48.3C176.6 47.9 176.8 44.2 177.3 43.5C177.7 43 180.5 41.1 181 41.2C181.4 41.6 182 42 182.3 42.5C182.8 43.5 182.5 45.1 183.5 45.8C183 44.6 183.8 44 184 43.2C184.2 42.4 183.9 42.5 184 42.2C184.1 41.9 185.8 41 184.9 40.2C186.5 39.5 189.3 40.5 190.4 41.7L190.5 41.8ZM187.8 41.5H187.3V41.7H187.8V41.5ZM185.7 44.3C185.9 44.5 191 42.6 187.9 42.4C184.8 42.2 185.6 42.6 185.7 44.3ZM180.1 44.5C180 44.3 180.1 43.9 179.9 43.9C179.6 44.1 179.6 44.4 179.5 44.7C179.3 46.2 180.5 53.3 181.3 54.3C182.1 55.3 181.3 54.7 181.8 54.6L182.2 50.7C181.9 49.6 181.2 48.2 181.6 47.2L181.2 47C181.5 46.7 181.3 45 181.2 44.8C181.1 44.6 180.3 44.8 180.1 44.5ZM181.2 43.8H180.7V44.5L181.2 44.1V43.8ZM188.7 45.7C188 45.4 187.6 46.3 187.5 46.3C187.1 46.5 186.5 46.1 186.6 46.8C187.6 47 188.2 46.4 188.7 45.6V45.7Z" fill="#1D1D1B"/>
</svg>
